<!-- sample rectangle -->

<svg width="454.54548339843745" height="119.18889073243427" viewBox="0 0 230 60.309574882367244" class="looka-1j8o68f"><defs id="SvgjsDefs3141"></defs><g id="SvgjsG3142" featurekey="ggLddZ-0" transform="matrix(0.07279786351777992,0,0,0.07279786351777992,170,0)" fill="#0f81c7"><g xmlns="http://www.w3.org/2000/svg">    <path d="M517.1,374.5c7.1-8.7,10.6-19.4,10.6-30.1c0-12.2-4.7-24.5-14-33.8c-9.3-9.3-21.6-14-33.8-14c-10.6,0-21.3,3.6-30.1,10.6   c-104.1-89.3-231-138.3-360-146.8l-3.8-0.2l-2.3,3C44.3,215,18.8,274.1,7.2,335.3l0,0l-0.6,3.6c-0.1,0.6-0.2,1.2-0.3,1.7l-1.6,8.9   l0.1,0C1.6,370.3,0,391.3,0,412.3c0,31.7,3.6,63.3,10.9,94.3l-0.1,0l1.5,5.9c0.2,0.6,0.3,1.3,0.5,1.9l1.5,5.9l0.1,0   c18.2,67.1,53.6,130.6,106.3,183.3c52.7,52.7,116.2,88.1,183.3,106.3l0,0.1l5.9,1.5c0.8,0.2,1.7,0.4,2.5,0.6l5.3,1.3l0-0.1   c31,7.3,62.7,10.9,94.3,10.9c21,0,42-1.6,62.8-4.8l0,0.1l6.4-1.1c0.8-0.1,1.7-0.3,2.5-0.4l5.3-0.9l0-0.1   c61.2-11.6,120.3-37.1,172.1-76.5l3-2.3l-0.2-3.8C655.4,605.4,606.4,478.6,517.1,374.5z M325.2,712.8c-5,5-11,8-17.4,9.3l0,0   c-2.1,0.4-4.3,0.6-6.5,0.6c-8.7,0-17.3-3.3-23.9-9.9l0,0c-6.6-6.6-9.9-15.2-9.9-23.9c0-8.7,3.3-17.3,9.9-23.9   c2.5-2.5,5.5-4.5,8.8-6.1l0.1-0.1c4.8-2.4,10.1-3.6,15.3-3.6c8.6,0,17.1,3.2,23.7,9.8l0,0c6.6,6.6,9.9,15.2,9.9,23.9   C335.1,697.6,331.8,706.2,325.2,712.8z M301.5,641.2c-5.1,0-10.3,0.8-15.2,2.5c-12-21.6-27.1-41.9-45.5-60.2l0,0   c-53-53-122.4-79.4-191.8-79.3c-8,0-16.1,0.4-24.1,1.1C17.6,474.7,14,443.5,14,412.3c0-21.4,1.7-42.8,5.2-63.9   c9.9-0.7,19.8-1.1,29.8-1.1c55.7,0,111.3,10.8,163.5,32.4c-2.8,6.3-4.2,13-4.2,19.7c0,8.4,2.2,16.8,6.6,24.3c2,3.4,4.5,6.6,7.4,9.5   c5.4,5.4,11.9,9.3,18.8,11.6l62.6,196.4C302.9,641.2,302.2,641.2,301.5,641.2z M279.9,423.3c-6.6,6.6-15.2,9.9-23.9,9.9   c-8.7,0-17.3-3.3-23.9-9.9l0,0c-2.1-2.1-3.8-4.3-5.2-6.7c-3.1-5.3-4.7-11.2-4.7-17.1c0-6.7,2-13.4,5.9-19.1l0.2-0.3   c1.2-1.7,2.4-3.2,3.7-4.6l0,0l0,0c6.6-6.6,15.2-9.9,23.9-9.9c8.7,0,17.3,3.3,23.9,9.9c6.6,6.6,9.8,15.2,9.9,23.8   c0,4.6-0.9,9.2-2.8,13.5l0,0C285.3,416.6,283,420.2,279.9,423.3z M490.9,775.3c0-113.1-43.1-226.3-129.4-312.6l0,0   c-18.7-18.7-38.7-35.3-59.7-49.9c1.3-4.4,1.9-9,1.9-13.5c0-7.7-1.8-15.4-5.5-22.4l141.6-6.4c1.8,2.7,3.8,5.3,6.2,7.7   c9.3,9.3,21.5,14,33.7,14c9.4,0,18.9-2.8,27-8.3c86.3,100.7,133.9,223,142.9,347.8c-48.3,36-102.9,59.6-159.5,70.9   C490.7,793.5,490.9,784.4,490.9,775.3z M503.8,320.5c6.6,6.6,9.9,15.2,9.9,23.9c0,8.2-3,16.4-8.9,22.9l-2,1.8   c-6.5,6.1-14.8,9.1-23.1,9.1c-8.6,0-17.2-3.3-23.8-9.9c-6.6-6.6-9.8-15.2-9.9-23.8c0-6.2,1.7-12.4,5.1-17.9c1.1-1.8,2.5-3.5,4-5.2   l0,0l0,0l1.9-2c6.5-5.9,14.6-8.9,22.8-8.9C488.6,310.5,497.2,313.8,503.8,320.5z M92.6,174.6c124.7,9,247.1,56.7,347.8,143   c-0.3,0.5-0.7,1-1,1.5c-4.9,7.7-7.3,16.6-7.3,25.4c0,4.1,0.5,8.3,1.6,12.3l-146.2,6.6c-9-7.9-20.3-11.9-31.5-11.9   c-12.2,0-24.5,4.7-33.8,14l0,0l0,0c-0.7,0.7-1.4,1.5-2.1,2.2c-54.6-22.9-112.9-34.4-171.2-34.4c-9.1,0-18.1,0.3-27.2,0.8   C33,277.5,56.6,222.9,92.6,174.6z M130.5,693.7c-50.3-50.3-84.3-110.8-102-174.8c6.8-0.5,13.7-0.8,20.5-0.8   c65.9,0,131.7,25,181.9,75.2l0,0c17.2,17.2,31.5,36.3,42.8,56.5c-2.2,1.5-4.3,3.2-6.3,5.2l0,0c-9.3,9.3-14,21.6-14,33.8l0,0l0,0   c0,12.2,4.7,24.5,14,33.8c9.3,9.3,21.6,14,33.8,14c0.7,0,1.3,0,2,0c0.1,0.3,0.1,0.7,0.1,1c1.8,12.5,2.8,25.1,2.8,37.7   c0,6.8-0.3,13.6-0.8,20.4C241.3,778,180.9,744.1,130.5,693.7L130.5,693.7z M319.1,799.3c0.7-8,1.1-16,1.1-24   c0-13.3-1-26.5-2.9-39.7c-0.1-0.5-0.1-1.1-0.2-1.6c6.6-2.3,12.8-6.1,18.1-11.3l0,0c9.3-9.3,14-21.6,14-33.8v0v0   c0-12.2-4.7-24.5-14-33.8c-4.6-4.7-10-8.1-15.8-10.4l-62.9-197.4c12.1-0.1,24.2-4.8,33.4-14c2.3-2.3,4.3-4.8,6-7.5   c19.6,13.8,38.3,29.4,55.8,46.9c83.6,83.6,125.3,193.1,125.3,302.7c0,10-0.4,19.9-1.1,29.8c-21.2,3.4-42.5,5.2-63.9,5.2   C380.8,810.3,349.6,806.6,319.1,799.3z"></path>    <polygon points="222.2,365.5 222.2,365.5 222.2,365.5 222.2,365.5 222.2,365.5 222.2,365.5 222.2,365.5  "></polygon>    <polygon points="222.2,433.2 222.2,433.2 222.2,433.2  "></polygon>    <polygon points="120.6,703.6 120.6,703.6 120.6,703.6  "></polygon>    <polygon points="267.5,722.8 267.4,722.7 267.4,722.7 267.4,722.7  "></polygon>    <path d="M824.2,412.1C824.2,184.5,639.7,0,412.1,0v14c110,0,209.5,44.6,281.6,116.6c72.1,72.1,116.6,171.6,116.6,281.5l0,0.2   l8.5-0.2H824.2z"></path>    <path d="M412.1,192.9L412.1,192.9z"></path>    <path d="M631.4,412.2h14c0-128.9-104.5-233.3-233.3-233.3l0,14C533.2,192.9,631.4,291,631.4,412.2z"></path>    <path d="M412.1,89.6v14c170.4,0.3,308.3,138.2,308.6,308.6h14C734.7,234,590.2,89.6,412.1,89.6z"></path></g></g><g id="SvgjsG3143" featurekey="nN0dxP-0" transform="matrix(3.052460674580333,0,0,3.052460674580333,-1.2221165058374384,-15.947738538503726)" fill="#111111"><path d="M0.40039 20 l-0.000019073 -3.623 c0.57292 0 0.98311 -0.076494 1.2305 -0.22949 s0.37109 -0.44108 0.37109 -0.86426 l0 -4.9414 c0 -0.42969 -0.1237 -0.72103 -0.37109 -0.87402 s-0.65755 -0.22949 -1.2305 -0.22949 l0 -3.623 l10.342 0 c0.95703 0 1.7627 0.094404 2.417 0.2832 s1.1784 0.45898 1.5723 0.81055 s0.67383 0.77148 0.83984 1.2598 s0.24902 1.0319 0.24902 1.6309 c0 1.0938 -0.26367 1.9678 -0.79102 2.6221 s-1.3704 1.0075 -2.5293 1.0596 l0 0.11719 c0.55989 0.039063 1.0237 0.14323 1.3916 0.3125 s0.65756 0.38899 0.86915 0.65918 s0.36133 0.5957 0.44922 0.97656 s0.13184 0.81218 0.13184 1.2939 l0 0.51758 c0 0.16276 0.042314 0.30437 0.12695 0.4248 s0.21484 0.18066 0.39063 0.18066 c0.1888 0 0.32227 -0.060225 0.40039 -0.18066 s0.11719 -0.26204 0.11719 -0.4248 l0 -2.4805 l1.123 0 l0 2.4805 c0 0.46875 -0.06999 0.90007 -0.20996 1.2939 s-0.36946 0.7373 -0.68848 1.0303 s-0.73894 0.51921 -1.2598 0.67871 s-1.1621 0.23926 -1.9238 0.23926 s-1.3851 -0.083008 -1.8701 -0.24902 s-0.86426 -0.39551 -1.1377 -0.68848 s-0.46387 -0.63313 -0.57129 -1.0205 s-0.16113 -0.7959 -0.16113 -1.2256 l0 -0.75195 c0 -0.52083 -0.029297 -0.94238 -0.087891 -1.2646 s-0.15462 -0.57292 -0.28809 -0.75195 s-0.30762 -0.29785 -0.52246 -0.35645 s-0.47526 -0.087891 -0.78125 -0.087891 l-0.23438 0 l0 1.3965 c0 0.34505 0.096025 0.59407 0.28809 0.74707 s0.53549 0.22949 1.0303 0.22949 l0 3.623 l-8.6816 0 z M7.7637 12.275400000000001 l0.85938 0 c0.54688 0 0.92285 -0.13184 1.1279 -0.39551 s0.30762 -0.62988 0.30762 -1.0986 c0 -0.54688 -0.10254 -0.94075 -0.30762 -1.1816 s-0.58105 -0.36133 -1.1279 -0.36133 l-0.85938 0 l0 3.0371 z M30.02 20 l-0.3222 -0.97655 c-0.41016 0.37109 -0.97493 0.69661 -1.6943 0.97656 s-1.5479 0.41992 -2.4854 0.41992 c-1.0547 0 -2.0508 -0.14323 -2.9883 -0.42969 s-1.7562 -0.73567 -2.4561 -1.3477 s-1.2532 -1.3981 -1.6602 -2.3584 s-0.61035 -2.1143 -0.61035 -3.4619 s0.21647 -2.5017 0.64941 -3.4619 s1.0026 -1.7464 1.709 -2.3584 s1.5056 -1.0612 2.3975 -1.3477 s1.8066 -0.42969 2.7441 -0.42969 c0.54688 0 1.04 0.042314 1.4795 0.12695 s0.8252 0.19043 1.1572 0.31738 s0.61198 0.26042 0.83984 0.40039 s0.41341 0.25553 0.55664 0.34667 l0 -0.80078 l3.2227 0 l0 5.3223 l-3.418 0 c-0.026045 -0.69011 -0.23275 -1.2483 -0.62013 -1.6748 s-0.92611 -0.63965 -1.6162 -0.63965 c-0.35156 0 -0.68034 0.063477 -0.98633 0.19043 s-0.57617 0.34993 -0.81055 0.66895 s-0.41829 0.7487 -0.55176 1.2891 s-0.2002 1.2239 -0.2002 2.0508 c0 0.78776 0.043945 1.447 0.13184 1.9775 s0.22461 0.96028 0.41016 1.2891 s0.42155 0.56641 0.70801 0.71289 s0.6315 0.21973 1.0352 0.21973 c0.091143 0 0.2067 -0.0097656 0.34667 -0.029297 s0.27344 -0.053711 0.40039 -0.10254 s0.23763 -0.1123 0.33203 -0.19043 s0.1416 -0.18555 0.1416 -0.32227 l0 -0.53711 c0 -0.30599 -0.10417 -0.53873 -0.3125 -0.69823 s-0.59896 -0.23926 -1.1719 -0.23926 l0 -3.2227 l8.2422 0 l0 3.2227 c-0.57292 0 -0.98311 0.076494 -1.2305 0.22949 s-0.37109 0.44108 -0.37109 0.86426 l0 4.0039 l-2.998 0 z M44.37503125 9.238 c-0.57292 0 -0.98145 0.076504 -1.2256 0.2295 s-0.36621 0.44434 -0.36621 0.87402 l0 6.0352 l1.9531 0 c0.26692 0 0.49153 -0.026045 0.67383 -0.078125 s0.32553 -0.16113 0.4297 -0.32715 s0.17741 -0.39876 0.21973 -0.69824 s0.063477 -0.69662 0.063477 -1.1914 l3.418 0 l0 5.918 l-14.121 0 l0 -3.623 c0.57292 0 0.98311 -0.076494 1.2305 -0.22949 s0.37109 -0.44108 0.37109 -0.86426 l0 -4.9414 c0 -0.42969 -0.1237 -0.72103 -0.37109 -0.87402 s-0.65755 -0.22949 -1.2305 -0.22949 l0 -3.623 l8.9551 0 l0 3.623 z"></path></g><g id="SvgjsG3144" featurekey="IfqRl1-0" transform="matrix(0.2706114987424097,0,0,0.2706114987424097,-0.44920962704040474,54.814721604539216)" fill="#0f81c7"><path d="M6.08 13.36 l-0.24 -0.000039062 l0.26 -0.46 l3.62 6.06 c0.08 0.14666 0.12 0.3 0.12 0.46 c0 0.24 -0.08666 0.44666 -0.26 0.62 s-0.38 0.26 -0.62 0.26 c-0.16 0 -0.31 -0.04 -0.45 -0.12 s-0.25 -0.18666 -0.33 -0.32 l-3.88 -6.5 l-0.86 0 l0 6.06 c0 0.24 -0.08666 0.44666 -0.26 0.62 s-0.38 0.26 -0.62 0.26 c-0.25334 0 -0.46668 -0.08666 -0.64002 -0.26 s-0.26 -0.38 -0.26 -0.62 l0 -14.02 c0 -0.24 0.08666 -0.44666 0.26 -0.62 s0.38668 -0.26 0.64002 -0.26 l3.52 0 c0.61334 0 1.19 0.11666 1.73 0.35 s1.01 0.55 1.41 0.95 s0.71666 0.86666 0.95 1.4 s0.35 1.1067 0.35 1.72 s-0.11666 1.1867 -0.35 1.72 s-0.55 1 -0.95 1.4 s-0.87 0.71666 -1.41 0.95 s-1.1167 0.35 -1.73 0.35 z M6.08 6.279999999999999 l-2.64 0 l0 5.3 l2.64 0 c0.36 0 0.70334 -0.07 1.03 -0.21 s0.61 -0.33 0.85 -0.57 s0.43 -0.52 0.57 -0.84 s0.21 -0.66 0.21 -1.02 s-0.07 -0.70334 -0.21 -1.03 s-0.33 -0.61 -0.57 -0.85 s-0.52334 -0.43 -0.85 -0.57 s-0.67 -0.21 -1.03 -0.21 z M39.616 20.22 c-0.10666 0.05334 -0.21992 0.08 -0.33992 0.08 c-0.17334 0 -0.33668 -0.04666 -0.49002 -0.14 s-0.26334 -0.22668 -0.33 -0.40002 l-1.58 -3.72 l-7.26 0 l-1.58 3.72 c-0.09334 0.22666 -0.25334 0.38666 -0.48 0.48 s-0.45332 0.08668 -0.67998 -0.01998 c-0.22666 -0.09334 -0.38666 -0.25334 -0.48 -0.48 s-0.08668 -0.45332 0.01998 -0.67998 l1.8 -4.26 l4.22 -9.88 c0.06666 -0.17334 0.17332 -0.30668 0.31998 -0.40002 s0.31332 -0.14 0.49998 -0.14 c0.17334 0 0.33334 0.04666 0.48 0.14 s0.25332 0.22668 0.31998 0.40002 c1.0133 2.3734 2.02 4.73 3.02 7.07 s2.0066 4.6966 3.02 7.07 c0.09334 0.22666 0.09334 0.45332 0 0.67998 s-0.25334 0.38666 -0.48 0.48 z M33.256 7.539999999999999 l-2.88 6.72 l5.74 0 z M70.492 17.96 c-0.76 0.76 -1.6234 1.3399 -2.59 1.7399 s-1.99 0.6 -3.07 0.6 c-1.1067 0 -2.1434 -0.21 -3.11 -0.63 s-1.81 -0.99 -2.53 -1.71 s-1.29 -1.5633 -1.71 -2.53 s-0.63 -2.0034 -0.63 -3.11 s0.21 -2.1334 0.63 -3.08 s0.99334 -1.77 1.72 -2.47 s1.5733 -1.25 2.54 -1.65 s1.9967 -0.6 3.09 -0.6 c1.08 0 2.1034 0.2 3.07 0.6 s1.83 0.98 2.59 1.74 c0.17334 0.17334 0.26 0.38 0.26 0.62 s-0.08666 0.44666 -0.26 0.62 c-0.18666 0.18666 -0.4 0.28 -0.64 0.28 s-0.44666 -0.09334 -0.62 -0.28 c-0.6 -0.58666 -1.2733 -1.0367 -2.02 -1.35 s-1.54 -0.47 -2.38 -0.47 c-0.85334 0 -1.6567 0.15334 -2.41 0.46 s-1.41 0.73 -1.97 1.27 s-1.0033 1.18 -1.33 1.92 s-0.49 1.5367 -0.49 2.39 s0.16334 1.6567 0.49 2.41 s0.77 1.41 1.33 1.97 s1.2167 1.0033 1.97 1.33 s1.5567 0.49 2.41 0.49 c0.77334 0 1.5133 -0.13334 2.22 -0.4 s1.3467 -0.65332 1.92 -1.16 l0 -3.76 l-4.04 0 c-0.25334 0 -0.46668 -0.08666 -0.64002 -0.26 s-0.26 -0.38 -0.26 -0.62 c0 -0.25334 0.08666 -0.46668 0.26 -0.64002 s0.38668 -0.26 0.64002 -0.26 l4.92 0 c0.25334 0 0.46668 0.08666 0.64002 0.26 s0.26 0.38668 0.26 0.64002 l0 5.02 c0 0.24 -0.08666 0.44666 -0.26 0.62 z M95.788 16.04 l-7.02 0 c-0.24 0 -0.44666 -0.08666 -0.62 -0.26 s-0.26 -0.38668 -0.26 -0.64002 c0 -0.24 0.08666 -0.44666 0.26 -0.62 s0.38 -0.26 0.62 -0.26 l7.02 0 c0.24 0 0.44666 0.08666 0.62 0.26 s0.26 0.38 0.26 0.62 c0 0.25334 -0.08666 0.46668 -0.26 0.64002 s-0.38 0.26 -0.62 0.26 z M121.26400000000001 20.3 c-1.0933 0 -2.12 -0.20666 -3.08 -0.62 s-1.7967 -0.97668 -2.51 -1.69 s-1.2767 -1.55 -1.69 -2.51 s-0.62 -1.9867 -0.62 -3.08 c0 -1.08 0.20666 -2.1 0.62 -3.06 s0.97668 -1.7967 1.69 -2.51 s1.55 -1.2767 2.51 -1.69 s1.9867 -0.62 3.08 -0.62 c1.08 0 2.1 0.20666 3.06 0.62 s1.7967 0.97668 2.51 1.69 s1.2767 1.55 1.69 2.51 s0.62 1.98 0.62 3.06 c0 1.0933 -0.20666 2.12 -0.62 3.08 s-0.97668 1.7967 -1.69 2.51 s-1.55 1.2767 -2.51 1.69 s-1.98 0.62 -3.06 0.62 z M121.26400000000001 6.279999999999999 c-0.84 0 -1.6333 0.16 -2.38 0.48 s-1.4 0.75666 -1.96 1.31 s-1 1.2033 -1.32 1.95 s-0.48 1.54 -0.48 2.38 s0.16 1.6333 0.48 2.38 s0.76 1.4 1.32 1.96 s1.2133 1 1.96 1.32 s1.54 0.48 2.38 0.48 s1.6333 -0.16 2.38 -0.48 s1.3967 -0.76 1.95 -1.32 s0.99 -1.2133 1.31 -1.96 s0.48 -1.54 0.48 -2.38 s-0.16 -1.6333 -0.48 -2.38 s-0.75666 -1.3967 -1.31 -1.95 s-1.2033 -0.99 -1.95 -1.31 s-1.54 -0.48 -2.38 -0.48 z M156.92000000000002 20.3 c-0.33334 0 -0.58668 -0.14 -0.76002 -0.42 l-7.22 -11.44 l0 10.98 c0 0.24 -0.08334 0.44666 -0.25 0.62 s-0.37666 0.26 -0.63 0.26 c-0.24 0 -0.44666 -0.08666 -0.62 -0.26 s-0.26 -0.38 -0.26 -0.62 l0 -14.02 c0 -0.24 0.08666 -0.44666 0.26 -0.62 s0.38 -0.26 0.62 -0.26 c0.33334 0 0.58668 0.13334 0.76002 0.4 l7.22 11.44 l0 -10.96 c0 -0.24 0.08334 -0.44666 0.25 -0.62 s0.37666 -0.26 0.63 -0.26 c0.24 0 0.44666 0.08666 0.62 0.26 s0.26 0.38 0.26 0.62 l0 14.02 c0 0.24 -0.08666 0.44666 -0.26 0.62 s-0.38 0.26 -0.62 0.26 z M182.836 16.04 l-7.02 0 c-0.24 0 -0.44666 -0.08666 -0.62 -0.26 s-0.26 -0.38668 -0.26 -0.64002 c0 -0.24 0.08666 -0.44666 0.26 -0.62 s0.38 -0.26 0.62 -0.26 l7.02 0 c0.24 0 0.44666 0.08666 0.62 0.26 s0.26 0.38 0.26 0.62 c0 0.25334 -0.08666 0.46668 -0.26 0.64002 s-0.38 0.26 -0.62 0.26 z M214.05200000000002 17.96 c-0.76 0.76 -1.6234 1.3399 -2.59 1.7399 s-1.99 0.6 -3.07 0.6 c-1.1067 0 -2.1434 -0.21 -3.11 -0.63 s-1.81 -0.99 -2.53 -1.71 s-1.29 -1.5633 -1.71 -2.53 s-0.63 -2.0034 -0.63 -3.11 s0.21 -2.1334 0.63 -3.08 s0.99334 -1.77 1.72 -2.47 s1.5733 -1.25 2.54 -1.65 s1.9967 -0.6 3.09 -0.6 c1.08 0 2.1034 0.2 3.07 0.6 s1.83 0.98 2.59 1.74 c0.17334 0.17334 0.26 0.38 0.26 0.62 s-0.08666 0.44666 -0.26 0.62 c-0.18666 0.18666 -0.4 0.28 -0.64 0.28 s-0.44666 -0.09334 -0.62 -0.28 c-0.6 -0.58666 -1.2733 -1.0367 -2.02 -1.35 s-1.54 -0.47 -2.38 -0.47 c-0.85334 0 -1.6567 0.15334 -2.41 0.46 s-1.41 0.73 -1.97 1.27 s-1.0033 1.18 -1.33 1.92 s-0.49 1.5367 -0.49 2.39 s0.16334 1.6567 0.49 2.41 s0.77 1.41 1.33 1.97 s1.2167 1.0033 1.97 1.33 s1.5567 0.49 2.41 0.49 c0.77334 0 1.5133 -0.13334 2.22 -0.4 s1.3467 -0.65332 1.92 -1.16 l0 -3.76 l-4.04 0 c-0.25334 0 -0.46668 -0.08666 -0.64002 -0.26 s-0.26 -0.38 -0.26 -0.62 c0 -0.25334 0.08666 -0.46668 0.26 -0.64002 s0.38668 -0.26 0.64002 -0.26 l4.92 0 c0.25334 0 0.46668 0.08666 0.64002 0.26 s0.26 0.38668 0.26 0.64002 l0 5.02 c0 0.24 -0.08666 0.44666 -0.26 0.62 z M237.18800000000002 13.36 l-0.24 -0.000039062 l0.26 -0.46 l3.62 6.06 c0.08 0.14666 0.12 0.3 0.12 0.46 c0 0.24 -0.08666 0.44666 -0.26 0.62 s-0.38 0.26 -0.62 0.26 c-0.16 0 -0.31 -0.04 -0.45 -0.12 s-0.25 -0.18666 -0.33 -0.32 l-3.88 -6.5 l-0.86 0 l0 6.06 c0 0.24 -0.08666 0.44666 -0.26 0.62 s-0.38 0.26 -0.62 0.26 c-0.25334 0 -0.46668 -0.08666 -0.64002 -0.26 s-0.26 -0.38 -0.26 -0.62 l0 -14.02 c0 -0.24 0.08666 -0.44666 0.26 -0.62 s0.38668 -0.26 0.64002 -0.26 l3.52 0 c0.61334 0 1.19 0.11666 1.73 0.35 s1.01 0.55 1.41 0.95 s0.71666 0.86666 0.95 1.4 s0.35 1.1067 0.35 1.72 s-0.11666 1.1867 -0.35 1.72 s-0.55 1 -0.95 1.4 s-0.87 0.71666 -1.41 0.95 s-1.1167 0.35 -1.73 0.35 z M237.18800000000002 6.279999999999999 l-2.64 0 l0 5.3 l2.64 0 c0.36 0 0.70334 -0.07 1.03 -0.21 s0.61 -0.33 0.85 -0.57 s0.43 -0.52 0.57 -0.84 s0.21 -0.66 0.21 -1.02 s-0.07 -0.70334 -0.21 -1.03 s-0.33 -0.61 -0.57 -0.85 s-0.52334 -0.43 -0.85 -0.57 s-0.67 -0.21 -1.03 -0.21 z M270.724 20.22 c-0.10666 0.05334 -0.21992 0.08 -0.33992 0.08 c-0.17334 0 -0.33668 -0.04666 -0.49002 -0.14 s-0.26334 -0.22668 -0.33 -0.40002 l-1.58 -3.72 l-7.26 0 l-1.58 3.72 c-0.09334 0.22666 -0.25334 0.38666 -0.48 0.48 s-0.45332 0.08668 -0.67998 -0.01998 c-0.22666 -0.09334 -0.38666 -0.25334 -0.48 -0.48 s-0.08668 -0.45332 0.01998 -0.67998 l1.8 -4.26 l4.22 -9.88 c0.06666 -0.17334 0.17332 -0.30668 0.31998 -0.40002 s0.31332 -0.14 0.49998 -0.14 c0.17334 0 0.33334 0.04666 0.48 0.14 s0.25332 0.22668 0.31998 0.40002 c1.0133 2.3734 2.02 4.73 3.02 7.07 s2.0066 4.6966 3.02 7.07 c0.09334 0.22666 0.09334 0.45332 0 0.67998 s-0.25334 0.38666 -0.48 0.48 z M264.364 7.539999999999999 l-2.88 6.72 l5.74 0 z M292.82 13.36 l-2.64 -0.000039062 l0 6.06 c0 0.24 -0.08666 0.44666 -0.26 0.62 s-0.38 0.26 -0.62 0.26 c-0.25334 0 -0.46668 -0.08666 -0.64002 -0.26 s-0.26 -0.38 -0.26 -0.62 l0 -14.02 c0 -0.24 0.08666 -0.44666 0.26 -0.62 s0.38668 -0.26 0.64002 -0.26 l3.52 0 c0.61334 0 1.19 0.11666 1.73 0.35 s1.01 0.55 1.41 0.95 s0.71666 0.86666 0.95 1.4 s0.35 1.1067 0.35 1.72 s-0.11666 1.1867 -0.35 1.72 s-0.55 1 -0.95 1.4 s-0.87 0.71666 -1.41 0.95 s-1.1167 0.35 -1.73 0.35 z M292.82 6.279999999999999 l-2.64 0 l0 5.3 l2.64 0 c0.36 0 0.70334 -0.07 1.03 -0.21 s0.61 -0.33 0.85 -0.57 s0.43 -0.52 0.57 -0.84 s0.21 -0.66 0.21 -1.02 s-0.07 -0.70334 -0.21 -1.03 s-0.33 -0.61 -0.57 -0.85 s-0.52334 -0.43 -0.85 -0.57 s-0.67 -0.21 -1.03 -0.21 z M324.916 20.3 c-0.24 0 -0.44666 -0.08666 -0.62 -0.26 s-0.26 -0.38 -0.26 -0.62 l0 -6.78 l-7.86 0 l0 6.78 c0 0.24 -0.08666 0.44666 -0.26 0.62 s-0.38 0.26 -0.62 0.26 c-0.25334 0 -0.46668 -0.08666 -0.64002 -0.26 s-0.26 -0.38 -0.26 -0.62 l0 -14.02 c0 -0.24 0.08666 -0.44666 0.26 -0.62 s0.38668 -0.26 0.64002 -0.26 c0.24 0 0.44666 0.08666 0.62 0.26 s0.26 0.38 0.26 0.62 l0 5.46 l7.86 0 l0 -5.46 c0 -0.24 0.08666 -0.44666 0.26 -0.62 s0.38 -0.26 0.62 -0.26 c0.25334 0 0.46668 0.08666 0.64002 0.26 s0.26 0.38 0.26 0.62 l0 14.02 c0 0.24 -0.08666 0.44666 -0.26 0.62 s-0.38668 0.26 -0.64002 0.26 z M348.25199999999995 20.3 c-0.61334 0 -1.1867 -0.11668 -1.72 -0.35002 s-1 -0.55 -1.4 -0.95 s-0.71666 -0.86666 -0.95 -1.4 s-0.35 -1.1067 -0.35 -1.72 c0 -0.25334 0.08666 -0.46668 0.26 -0.64002 s0.38668 -0.26 0.64002 -0.26 c0.24 0 0.44666 0.08666 0.62 0.26 s0.26 0.38668 0.26 0.64002 c0 0.36 0.07 0.7 0.21 1.02 s0.33 0.6 0.57 0.84 s0.52 0.43 0.84 0.57 s0.66 0.21 1.02 0.21 s0.70334 -0.07 1.03 -0.21 s0.61 -0.33 0.85 -0.57 s0.43 -0.52 0.57 -0.84 s0.21 -0.66 0.21 -1.02 c0 -0.44 -0.08666 -0.80334 -0.26 -1.09 s-0.41334 -0.53666 -0.72 -0.75 c-0.14666 -0.10666 -0.31332 -0.20332 -0.49998 -0.28998 s-0.38 -0.17666 -0.58 -0.27 c-0.2 -0.08 -0.40666 -0.16 -0.62 -0.24 s-0.43334 -0.16 -0.66 -0.24 c-0.44 -0.16 -0.88334 -0.34 -1.33 -0.54 s-0.84666 -0.45 -1.2 -0.75 s-0.64334 -0.67334 -0.87 -1.12 s-0.34 -0.99666 -0.34 -1.65 c0 -0.61334 0.11666 -1.1867 0.35 -1.72 s0.55 -1 0.95 -1.4 s0.86666 -0.71666 1.4 -0.95 s1.1067 -0.35 1.72 -0.35 s1.19 0.11666 1.73 0.35 s1.01 0.55 1.41 0.95 s0.71666 0.86666 0.95 1.4 s0.35 1.1067 0.35 1.72 c0 0.24 -0.08666 0.44666 -0.26 0.62 s-0.38668 0.26 -0.64002 0.26 c-0.24 0 -0.44666 -0.08666 -0.62 -0.26 s-0.26 -0.38 -0.26 -0.62 c0 -0.36 -0.07 -0.70334 -0.21 -1.03 s-0.33 -0.61 -0.57 -0.85 s-0.52334 -0.43 -0.85 -0.57 s-0.67 -0.21 -1.03 -0.21 s-0.7 0.07 -1.02 0.21 s-0.6 0.33 -0.84 0.57 s-0.43 0.52334 -0.57 0.85 s-0.21 0.67 -0.21 1.03 c0 0.4 0.08334 0.73334 0.25 1 s0.40332 0.5 0.70998 0.7 c0.32 0.2 0.68 0.38 1.08 0.54 l0.64 0.24 l0.66 0.24 c0.44 0.16 0.88334 0.34334 1.33 0.55 s0.84666 0.46666 1.2 0.78 s0.64334 0.70334 0.87 1.17 s0.34 1.04 0.34 1.72 c0 0.61334 -0.11666 1.1867 -0.35 1.72 s-0.55 1 -0.95 1.4 s-0.87 0.71666 -1.41 0.95 s-1.1167 0.35 -1.73 0.35 z M399.08399999999995 20.3 l-5.34 0 c-0.24 0 -0.44666 -0.08666 -0.62 -0.26 s-0.26 -0.38 -0.26 -0.62 l0 -14.02 c0 -0.25334 0.08666 -0.46334 0.26 -0.63 s0.38 -0.25 0.62 -0.25 c0.25334 0 0.46334 0.08334 0.63 0.25 s0.25 0.37666 0.25 0.63 l0 13.14 l4.46 0 c0.25334 0 0.46668 0.08666 0.64002 0.26 s0.26 0.38 0.26 0.62 s-0.08666 0.44666 -0.26 0.62 s-0.38668 0.26 -0.64002 0.26 z M417.58 20.3 c-0.25334 0 -0.46668 -0.08666 -0.64002 -0.26 s-0.26 -0.38 -0.26 -0.62 l0 -14.02 c0 -0.24 0.08666 -0.44666 0.26 -0.62 s0.38668 -0.26 0.64002 -0.26 c0.24 0 0.44666 0.08666 0.62 0.26 s0.26 0.38 0.26 0.62 l0 14.02 c0 0.24 -0.08666 0.44666 -0.26 0.62 s-0.38 0.26 -0.62 0.26 z M442.07599999999996 20.3 l-4.26 0.000019531 c-0.25334 0 -0.46668 -0.08666 -0.64002 -0.26 s-0.26 -0.38 -0.26 -0.62 l0 -14.02 c0 -0.24 0.08666 -0.44666 0.26 -0.62 s0.38668 -0.26 0.64002 -0.26 l2.92 0 c0.50666 0 0.98666 0.09666 1.44 0.29 s0.84668 0.45668 1.18 0.79002 s0.59668 0.72668 0.79002 1.18 s0.29 0.93334 0.29 1.44 c0 0.8 -0.24 1.5333 -0.72 2.2 c0.52 0.17334 0.99334 0.41 1.42 0.71 s0.79332 0.65666 1.1 1.07 s0.54666 0.87 0.72 1.37 s0.26 1.03 0.26 1.59 c0 0.70666 -0.13334 1.3733 -0.4 2 s-0.63332 1.1733 -1.1 1.64 s-1.0133 0.83332 -1.64 1.1 s-1.2933 0.4 -2 0.4 z M440.736 6.279999999999999 l-2.04 0 l0 3.86 l2.24 0 c0.21334 0 0.42334 -0.05666 0.63 -0.17 s0.39 -0.26 0.55 -0.44 s0.29 -0.38334 0.39 -0.61 s0.15 -0.46 0.15 -0.7 c0 -0.26666 -0.05 -0.51666 -0.15 -0.75 s-0.23666 -0.44 -0.41 -0.62 s-0.37668 -0.32 -0.61002 -0.42 s-0.48334 -0.15 -0.75 -0.15 z M442.07599999999996 11.92 l-3.38 -0.000039062 l0 6.6 l3.38 0 c0.46666 0 0.90332 -0.08666 1.31 -0.26 s0.76332 -0.41334 1.07 -0.72 s0.54666 -0.66332 0.72 -1.07 s0.26 -0.84332 0.26 -1.31 s-0.09 -0.9 -0.27 -1.3 s-0.42 -0.74334 -0.72 -1.03 s-0.65666 -0.51 -1.07 -0.67 s-0.84668 -0.24 -1.3 -0.24 z M469.21199999999993 13.36 l-0.24 -0.000039062 l0.26 -0.46 l3.62 6.06 c0.08 0.14666 0.12 0.3 0.12 0.46 c0 0.24 -0.08666 0.44666 -0.26 0.62 s-0.38 0.26 -0.62 0.26 c-0.16 0 -0.31 -0.04 -0.45 -0.12 s-0.25 -0.18666 -0.33 -0.32 l-3.88 -6.5 l-0.86 0 l0 6.06 c0 0.24 -0.08666 0.44666 -0.26 0.62 s-0.38 0.26 -0.62 0.26 c-0.25334 0 -0.46668 -0.08666 -0.64002 -0.26 s-0.26 -0.38 -0.26 -0.62 l0 -14.02 c0 -0.24 0.08666 -0.44666 0.26 -0.62 s0.38668 -0.26 0.64002 -0.26 l3.52 0 c0.61334 0 1.19 0.11666 1.73 0.35 s1.01 0.55 1.41 0.95 s0.71666 0.86666 0.95 1.4 s0.35 1.1067 0.35 1.72 s-0.11666 1.1867 -0.35 1.72 s-0.55 1 -0.95 1.4 s-0.87 0.71666 -1.41 0.95 s-1.1167 0.35 -1.73 0.35 z M469.21199999999993 6.279999999999999 l-2.64 0 l0 5.3 l2.64 0 c0.36 0 0.70334 -0.07 1.03 -0.21 s0.61 -0.33 0.85 -0.57 s0.43 -0.52 0.57 -0.84 s0.21 -0.66 0.21 -1.02 s-0.07 -0.70334 -0.21 -1.03 s-0.33 -0.61 -0.57 -0.85 s-0.52334 -0.43 -0.85 -0.57 s-0.67 -0.21 -1.03 -0.21 z M502.74799999999993 20.22 c-0.10666 0.05334 -0.21992 0.08 -0.33992 0.08 c-0.17334 0 -0.33668 -0.04666 -0.49002 -0.14 s-0.26334 -0.22668 -0.33 -0.40002 l-1.58 -3.72 l-7.26 0 l-1.58 3.72 c-0.09334 0.22666 -0.25334 0.38666 -0.48 0.48 s-0.45332 0.08668 -0.67998 -0.01998 c-0.22666 -0.09334 -0.38666 -0.25334 -0.48 -0.48 s-0.08668 -0.45332 0.01998 -0.67998 l1.8 -4.26 l4.22 -9.88 c0.06666 -0.17334 0.17332 -0.30668 0.31998 -0.40002 s0.31332 -0.14 0.49998 -0.14 c0.17334 0 0.33334 0.04666 0.48 0.14 s0.25332 0.22668 0.31998 0.40002 c1.0133 2.3734 2.02 4.73 3.02 7.07 s2.0066 4.6966 3.02 7.07 c0.09334 0.22666 0.09334 0.45332 0 0.67998 s-0.25334 0.38666 -0.48 0.48 z M496.3879999999999 7.539999999999999 l-2.88 6.72 l5.74 0 z M524.8439999999999 13.36 l-0.24 -0.000039062 l0.26 -0.46 l3.62 6.06 c0.08 0.14666 0.12 0.3 0.12 0.46 c0 0.24 -0.08666 0.44666 -0.26 0.62 s-0.38 0.26 -0.62 0.26 c-0.16 0 -0.31 -0.04 -0.45 -0.12 s-0.25 -0.18666 -0.33 -0.32 l-3.88 -6.5 l-0.86 0 l0 6.06 c0 0.24 -0.08666 0.44666 -0.26 0.62 s-0.38 0.26 -0.62 0.26 c-0.25334 0 -0.46668 -0.08666 -0.64002 -0.26 s-0.26 -0.38 -0.26 -0.62 l0 -14.02 c0 -0.24 0.08666 -0.44666 0.26 -0.62 s0.38668 -0.26 0.64002 -0.26 l3.52 0 c0.61334 0 1.19 0.11666 1.73 0.35 s1.01 0.55 1.41 0.95 s0.71666 0.86666 0.95 1.4 s0.35 1.1067 0.35 1.72 s-0.11666 1.1867 -0.35 1.72 s-0.55 1 -0.95 1.4 s-0.87 0.71666 -1.41 0.95 s-1.1167 0.35 -1.73 0.35 z M524.8439999999999 6.279999999999999 l-2.64 0 l0 5.3 l2.64 0 c0.36 0 0.70334 -0.07 1.03 -0.21 s0.61 -0.33 0.85 -0.57 s0.43 -0.52 0.57 -0.84 s0.21 -0.66 0.21 -1.02 s-0.07 -0.70334 -0.21 -1.03 s-0.33 -0.61 -0.57 -0.85 s-0.52334 -0.43 -0.85 -0.57 s-0.67 -0.21 -1.03 -0.21 z M555.8399999999999 5.84 l-4.54 8.12 l0 5.46 c0 0.24 -0.08666 0.44666 -0.26 0.62 s-0.38 0.26 -0.62 0.26 s-0.44666 -0.08666 -0.62 -0.26 s-0.26 -0.38 -0.26 -0.62 l0 -5.46 l-4.54 -8.12 c-0.08 -0.13334 -0.12 -0.28 -0.12 -0.44 c0 -0.24 0.08666 -0.44666 0.26 -0.62 s0.38 -0.26 0.62 -0.26 c0.16 0 0.31 0.04 0.45 0.12 s0.25 0.18666 0.33 0.32 l3.88 6.94 l3.88 -6.94 c0.08 -0.13334 0.19 -0.24 0.33 -0.32 s0.29 -0.12 0.45 -0.12 c0.24 0 0.44666 0.08666 0.62 0.26 s0.26 0.38 0.26 0.62 c0 0.16 -0.04 0.30666 -0.12 0.44 z"></path></g></svg>